<svg id="Capa_1" data-name="Capa 1" xmlns="http://www.w3.org/2000/svg" viewBox="0 0 30.81 30.81"><defs><style>.cls-1{fill:#009fe3;stroke:#9d9d9c;stroke-miterlimit:10;stroke-width:0.25px;opacity:0.58;}.cls-2{fill:#fff;}</style></defs><title>Favicon-Logo_Pmorelius-BLUE</title><circle class="cls-1" cx="15.4" cy="15.4" r="15.28"/><circle class="cls-2" cx="10.63" cy="23.44" r="0.94"/><circle class="cls-2" cx="13.81" cy="23.44" r="0.94"/><circle class="cls-2" cx="17" cy="23.44" r="0.94"/><circle class="cls-2" cx="20.19" cy="23.44" r="0.94"/><rect class="cls-2" x="21.87" y="17.93" width="4.74" height="1.02" transform="translate(-6.76 16) rotate(-33.8)"/><path class="cls-2" d="M21.32,19.14a1,1,0,1,0,1.45.29A1,1,0,0,0,21.32,19.14Zm.82,1.22a.42.42,0,0,1-.59-.12.41.41,0,0,1,.12-.58.42.42,0,0,1,.59.11A.43.43,0,0,1,22.14,20.36Z" transform="translate(-0.6 -0.6)"/><polygon class="cls-2" points="24.47 16.68 25.32 16.11 26.82 18.34 25.9 18.93 25.88 18.83 24.47 16.68"/><polygon class="cls-2" points="25.78 18.68 26.82 18.34 27.36 20.62 26.33 20.86 25.87 18.8 25.78 18.68"/><path class="cls-2" d="M27,21a1.06,1.06,0,0,0-.29,1.46,1,1,0,0,0,1.45.28A1,1,0,0,0,27,21Zm.82,1.23a.43.43,0,1,1,.11-.59A.43.43,0,0,1,27.79,22.23Z" transform="translate(-0.6 -0.6)"/><polygon class="cls-2" points="22.75 15.14 25.64 13.81 25.72 13.72 26.25 14.65 23.18 16.07 22.75 15.14"/><polygon class="cls-2" points="25.53 13.86 25.64 13.81 27.15 12.2 27.89 12.9 26.25 14.65 25.53 13.86"/><path class="cls-2" d="M28.47,11.78a1,1,0,1,0,1,1.1A1,1,0,0,0,28.47,11.78Zm-.08,1.47a.42.42,0,0,1-.4-.44.43.43,0,0,1,.45-.41.44.44,0,0,1,.4.45A.43.43,0,0,1,28.39,13.25Z" transform="translate(-0.6 -0.6)"/><path class="cls-2" d="M23.21,15.3a1,1,0,0,0-.11,2.09,1,1,0,1,0,.11-2.09Zm-.07,1.47a.42.42,0,0,1-.41-.44.44.44,0,0,1,.45-.41.41.41,0,0,1,.4.45A.42.42,0,0,1,23.14,16.77Z" transform="translate(-0.6 -0.6)"/><polygon class="cls-2" points="23.8 10.53 23.93 10.43 23.68 8.56 24.7 8.42 25.02 10.88 23.8 10.53"/><polygon class="cls-2" points="21.89 12.02 23.93 10.43 23.91 10.28 25.02 10.88 22.52 12.83 21.89 12.02"/><path class="cls-2" d="M24.73,7.57a1.05,1.05,0,1,0,1,1A1,1,0,0,0,24.73,7.57Zm0,1.48a.43.43,0,1,1,0-.85.43.43,0,0,1,0,.85Z" transform="translate(-0.6 -0.6)"/><path class="cls-2" d="M22.46,12.26a1,1,0,1,0,1.05,1A1,1,0,0,0,22.46,12.26Zm0,1.47a.43.43,0,1,1,.43-.43A.42.42,0,0,1,22.46,13.73Z" transform="translate(-0.6 -0.6)"/><rect class="cls-2" x="7.25" y="16.13" width="1.02" height="4.74" transform="matrix(0.56, -0.83, 0.83, 0.56, -12.52, 14.07)"/><path class="cls-2" d="M9.23,19.48a1,1,0,0,0,.29,1.45A1,1,0,0,0,11,20.65a1.06,1.06,0,0,0-.29-1.46A1,1,0,0,0,9.23,19.48Zm.52.35a.42.42,0,0,1,.59-.12.43.43,0,0,1,.11.59.42.42,0,0,1-.59.12A.43.43,0,0,1,9.75,19.83Z" transform="translate(-0.6 -0.6)"/><polygon class="cls-2" points="6.34 16.73 5.49 16.16 4 18.4 4.91 18.99 4.93 18.89 6.34 16.73"/><polygon class="cls-2" points="5.03 18.73 4 18.4 3.45 20.67 4.48 20.92 4.94 18.85 5.03 18.73"/><path class="cls-2" d="M3.58,21.35a1,1,0,1,0,1.74,1.16A1,1,0,0,0,5,21.06,1.06,1.06,0,0,0,3.58,21.35Zm.52.34a.43.43,0,0,1,.59-.11.42.42,0,0,1,.12.59.43.43,0,0,1-.59.11A.42.42,0,0,1,4.1,21.69Z" transform="translate(-0.6 -0.6)"/><polygon class="cls-2" points="8.06 15.2 5.17 13.86 5.09 13.78 4.56 14.71 7.63 16.13 8.06 15.2"/><polygon class="cls-2" points="5.29 13.91 5.17 13.86 3.67 12.25 2.92 12.96 4.56 14.71 5.29 13.91"/><path class="cls-2" d="M2.54,12.94a1,1,0,1,0,1-1.1A1,1,0,0,0,2.54,12.94Zm.62,0a.43.43,0,0,1,.41-.45.42.42,0,0,1,.44.4.41.41,0,0,1-.4.45A.44.44,0,0,1,3.16,12.91Z" transform="translate(-0.6 -0.6)"/><path class="cls-2" d="M7.8,16.46a1,1,0,1,0,1-1.1A1,1,0,0,0,7.8,16.46Zm.62,0a.43.43,0,1,1,.45.41A.43.43,0,0,1,8.42,16.42Z" transform="translate(-0.6 -0.6)"/><polygon class="cls-2" points="7.01 10.59 6.88 10.48 7.13 8.62 6.11 8.48 5.79 10.93 7.01 10.59"/><polygon class="cls-2" points="8.93 12.08 6.88 10.48 6.9 10.34 5.79 10.93 8.3 12.89 8.93 12.08"/><path class="cls-2" d="M6.23,8.68a1,1,0,1,0,1-1A1,1,0,0,0,6.23,8.68Zm.62,0a.43.43,0,1,1,.85,0,.43.43,0,0,1-.85,0Z" transform="translate(-0.6 -0.6)"/><path class="cls-2" d="M8.5,13.36a1,1,0,1,0,1-1A1,1,0,0,0,8.5,13.36Zm.62,0a.43.43,0,1,1,.42.42A.42.42,0,0,1,9.12,13.36Z" transform="translate(-0.6 -0.6)"/><polygon class="cls-2" points="13.4 9.84 13.41 7.95 14.12 7.95 14.12 9.5 13.4 9.84"/><path class="cls-2" d="M13.89,10.6V8.44h.93v1.72Zm.22-1.95v1.62l.5-.24V8.65Z" transform="translate(-0.6 -0.6)"/><polygon class="cls-2" points="11.95 10.51 11.96 8.61 12.68 8.62 12.67 10.17 11.95 10.51"/><path class="cls-2" d="M12.44,11.27V9.1h.93v1.72Zm.22-1.95v1.61l.51-.24V9.32Z" transform="translate(-0.6 -0.6)"/><polygon class="cls-2" points="16.68 9.5 16.67 7.95 17.38 7.95 17.39 9.84 16.68 9.5"/><path class="cls-2" d="M18.09,10.6l-.93-.44V8.44h.93ZM17.38,10l.5.24V8.65h-.5Z" transform="translate(-0.6 -0.6)"/><polygon class="cls-2" points="18.12 10.17 18.11 8.62 18.83 8.61 18.84 10.51 18.12 10.17"/><path class="cls-2" d="M19.54,11.27l-.93-.44V9.11h.93Zm-.72-.58.51.24V9.32h-.5Z" transform="translate(-0.6 -0.6)"/><circle class="cls-2" cx="16.12" cy="13.72" r="0.42"/><path class="cls-2" d="M18.49,21h-4.9l-3.14-3.84,1.07-4.84L16,10.16l4.44,2.1,1.13,4.82Zm-4.44-1h4l2.47-3.12-.91-3.91L16,11.25,12.37,13l-.86,3.9Z" transform="translate(-0.6 -0.6)"/><path class="cls-2" d="M17.5,18.82H14.55L12.66,16.5l.64-2.91L16,12.32l2.68,1.26.68,2.91Zm-2.72-.49h2.49l1.55-2-.58-2.45L16,12.86l-2.27,1.07-.53,2.45Z" transform="translate(-0.6 -0.6)"/></svg>